# xmcd
#
# Track frame offsets: 
#        150
#        11942
#        25980
#        38655
#        52675
#        67325
#        82815
#        97500
#        112217
#        125120
#        139210
#        150922
#        162762
#        175522
#        185902
#        197502
#
# Disc length: 2791 seconds
#
# Revision: 3
# Processed by: cddbd v1.5.1PL0 Copyright (c) Steve Scherf et al.
# Submitted via: ExactAudioCopy v0.95a5
#
DISCID=cc0ae510
DTITLE=Ernest Tubb - Country Music Hall of Fame Series
DYEAR=1991
DGENRE=Country
TTITLE0=Walking The Floor Over You
TTITLE1=Our Baby's Book
TTITLE2=You Nearly Lose Your Mind
TTITLE3=Tomorrow Never Comes
TTITLE4=Soldier's Last Letter
TTITLE5=It's Been So Long Darling
TTITLE6=Seaman's Blues
TTITLE7=Forever Is Ending Today
TTITLE8=Have You Ever Been Lonely (Have You Ever Been Blue)
TTITLE9=Letters Have No Arms
TTITLE10=Throw Your Love My Way
TTITLE11=Fortunes In Memories
TTITLE12=Love Lifted Me
TTITLE13=Two Glasses, Joe
TTITLE14=Thanks A Lot
TTITLE15=Waltz Across Texas
EXTD=YEAR: 1991
EXTT0=
EXTT1=
EXTT2=
EXTT3=
EXTT4=
EXTT5=
EXTT6=
EXTT7=
EXTT8=
EXTT9=
EXTT10=
EXTT11=
EXTT12=
EXTT13=
EXTT14=
EXTT15=
PLAYORDER=
